<svg width="34" height="33" viewBox="0 0 34 33" fill="none" xmlns="http://www.w3.org/2000/svg">
<path d="M31.7321 0.261719H2.27302C1.56456 0.261719 0.992188 0.83409 0.992188 1.54255V31.0017C0.992188 31.7101 1.56456 32.2825 2.27302 32.2825H31.7321C32.4406 32.2825 33.013 31.7101 33.013 31.0017V1.54255C33.013 0.83409 32.4406 0.261719 31.7321 0.261719ZM28.0337 9.60778H25.4761C23.4708 9.60778 23.0825 10.5604 23.0825 11.9613V15.0473H27.8696L27.2452 19.8784H23.0825V32.2825H18.0913V19.8825H13.9166V15.0473H18.0913V11.485C18.0913 7.35032 20.6169 5.09686 24.3073 5.09686C26.0765 5.09686 27.5934 5.22894 28.0377 5.28898V9.60778H28.0337Z" fill="white"/>
</svg>
