<svg width="34" height="33" viewBox="0 0 34 33" fill="none" xmlns="http://www.w3.org/2000/svg">
<path d="M31.7321 0.275391H2.27302C1.56456 0.275391 0.992188 0.847762 0.992188 1.55622V31.0153C0.992188 31.7238 1.56456 32.2962 2.27302 32.2962H31.7321C32.4406 32.2962 33.013 31.7238 33.013 31.0153V1.55622C33.013 0.847762 32.4406 0.275391 31.7321 0.275391ZM28.0337 9.62146H25.4761C23.4708 9.62146 23.0825 10.5741 23.0825 11.975V15.061H27.8696L27.2452 19.8921H23.0825V32.2962H18.0913V19.8961H13.9166V15.061H18.0913V11.4987C18.0913 7.36399 20.6169 5.11053 24.3073 5.11053C26.0765 5.11053 27.5934 5.24261 28.0377 5.30265V9.62146H28.0337Z" fill="#2091F9"/>
</svg>
