<svg width="33" height="33" viewBox="0 0 33 33" fill="none" xmlns="http://www.w3.org/2000/svg">
<path d="M31.7165 0.275391H2.25739C1.54893 0.275391 0.976562 0.847762 0.976562 1.55622V31.0153C0.976562 31.7238 1.54893 32.2962 2.25739 32.2962H31.7165C32.425 32.2962 32.9973 31.7238 32.9973 31.0153V1.55622C32.9973 0.847762 32.425 0.275391 31.7165 0.275391ZM10.4747 27.5611H5.72364V12.2792H10.4747V27.5611ZM8.10119 10.1898C7.55654 10.1898 7.02412 10.0283 6.57126 9.72573C6.11841 9.42314 5.76545 8.99305 5.55702 8.48987C5.34859 7.98668 5.29406 7.43298 5.40031 6.8988C5.50657 6.36462 5.76884 5.87394 6.15396 5.48882C6.53909 5.10369 7.02977 4.84142 7.56395 4.73516C8.09813 4.62891 8.65182 4.68344 9.15501 4.89187C9.6582 5.1003 10.0883 5.45326 10.3909 5.90612C10.6935 6.35897 10.855 6.89139 10.855 7.43604C10.851 8.95702 9.61817 10.1898 8.10119 10.1898ZM28.2623 27.5611H23.5152V20.1283C23.5152 18.3551 23.4832 16.0776 21.0456 16.0776C18.576 16.0776 18.1957 18.0069 18.1957 20.0002V27.5611H13.4527V12.2792H18.0076V14.3685H18.0717C18.7041 13.1678 20.2531 11.8989 22.5666 11.8989C27.3777 11.8989 28.2623 15.065 28.2623 19.1797V27.5611Z" fill="#2091F9"/>
</svg>
