<svg width="33" height="33" viewBox="0 0 33 33" fill="none" xmlns="http://www.w3.org/2000/svg">
<path d="M31.7165 0.261719H2.25739C1.54893 0.261719 0.976562 0.83409 0.976562 1.54255V31.0017C0.976562 31.7101 1.54893 32.2825 2.25739 32.2825H31.7165C32.425 32.2825 32.9973 31.7101 32.9973 31.0017V1.54255C32.9973 0.83409 32.425 0.261719 31.7165 0.261719ZM10.4747 27.5474H5.72364V12.2655H10.4747V27.5474ZM8.10119 10.1762C7.55654 10.1762 7.02412 10.0146 6.57126 9.71206C6.11841 9.40946 5.76545 8.97938 5.55702 8.47619C5.34859 7.973 5.29406 7.41931 5.40031 6.88513C5.50657 6.35095 5.76884 5.86027 6.15396 5.47514C6.53909 5.09002 7.02977 4.82775 7.56395 4.72149C8.09813 4.61524 8.65182 4.66977 9.15501 4.8782C9.6582 5.08663 10.0883 5.43959 10.3909 5.89244C10.6935 6.3453 10.855 6.87772 10.855 7.42236C10.851 8.94335 9.61817 10.1762 8.10119 10.1762ZM28.2623 27.5474H23.5152V20.1146C23.5152 18.3414 23.4832 16.064 21.0456 16.064C18.576 16.064 18.1957 17.9932 18.1957 19.9865V27.5474H13.4527V12.2655H18.0076V14.3549H18.0717C18.7041 13.1541 20.2531 11.8853 22.5666 11.8853C27.3777 11.8853 28.2623 15.0513 28.2623 19.166V27.5474Z" fill="white"/>
</svg>
