<svg width="49" height="47" viewBox="0 0 49 47" fill="none" xmlns="http://www.w3.org/2000/svg">
<path d="M48.1366 4.88682L44.7308 1.48099C43.7904 0.489736 42.1383 0.489736 41.147 1.48099L18.3737 24.2543L25.3633 31.2439L48.1366 8.47057C49.1279 7.47932 49.1279 5.82724 48.1366 4.88682ZM13.2904 28.7022C11.2681 28.7022 9.32864 29.5056 7.89868 30.9355C6.46871 32.3655 5.66536 34.305 5.66536 36.3272C5.66536 39.6568 2.71703 41.4106 0.582031 41.4106C2.92036 44.5114 6.9362 46.4939 10.7487 46.4939C13.4451 46.4939 16.031 45.4228 17.9376 43.5162C19.8442 41.6095 20.9154 39.0236 20.9154 36.3272C20.9154 34.305 20.112 32.3655 18.6821 30.9355C17.2521 29.5056 15.3126 28.7022 13.2904 28.7022Z" fill="#2091F9"/>
</svg>
