<svg width="46" height="43" viewBox="0 0 46 43" fill="none" xmlns="http://www.w3.org/2000/svg">
<path d="M18.7486 41.7689C22.902 40.1356 21.992 35.6323 19.892 32.7856C17.8153 29.8689 14.9453 27.8623 12.052 25.9256C9.98756 24.6244 8.14432 23.0018 6.59197 21.1189C5.93863 20.3489 4.60863 18.9256 5.96197 18.6456C7.33863 18.3656 9.71864 19.7189 10.932 20.2323C13.0553 21.1189 15.1553 22.1456 17.1153 23.3589L19.472 19.3923C15.832 16.9889 11.1653 14.8656 6.8253 14.2356C4.35197 13.8623 1.73863 14.3756 0.898634 17.0589C0.151967 19.3689 1.34197 21.7023 2.6953 23.5223C5.89197 27.7923 10.862 29.8456 14.572 33.5323C15.3653 34.3023 16.322 35.2123 16.7886 36.2856C17.2786 37.3123 17.162 37.3823 16.0653 37.3823C13.172 37.3823 9.5553 35.1189 7.19864 33.6256L4.84197 37.5923C8.41197 39.7856 14.3853 43.2156 18.7486 41.7689ZM44.6253 5.36893C45.1386 4.8556 45.1386 4.0156 44.6253 3.5256L41.592 0.492266C41.3476 0.256727 41.0214 0.125122 40.682 0.125122C40.3426 0.125122 40.0164 0.256727 39.772 0.492266L37.392 2.87226L42.2453 7.7256L44.6253 5.36893ZM21.6653 18.5989V23.4523H26.5186L40.8686 9.10226L36.0153 4.24893L21.6653 18.5989Z" fill="#2091F9"/>
</svg>
