<svg width="32" height="39" viewBox="0 0 32 39" fill="none" xmlns="http://www.w3.org/2000/svg">
<path d="M15.9987 23.6126C20.2269 23.6126 23.6654 20.1741 23.6654 15.946C23.6654 11.7178 20.2269 8.2793 15.9987 8.2793C11.7705 8.2793 8.33203 11.7178 8.33203 15.946C8.33203 20.1741 11.7705 23.6126 15.9987 23.6126ZM15.9987 12.1126C18.1128 12.1126 19.832 13.8319 19.832 15.946C19.832 18.06 18.1128 19.7793 15.9987 19.7793C13.8846 19.7793 12.1654 18.06 12.1654 15.946C12.1654 13.8319 13.8846 12.1126 15.9987 12.1126Z" fill="white"/>
<path d="M14.8898 38.5891C15.2142 38.8208 15.6029 38.9453 16.0015 38.9453C16.4001 38.9453 16.7887 38.8208 17.1131 38.5891C17.6958 38.1771 31.3904 28.289 31.3348 15.9456C31.3348 7.49121 24.4559 0.612305 16.0015 0.612305C7.5471 0.612305 0.668138 7.49121 0.668138 15.9361C0.612548 28.289 14.3071 38.1771 14.8898 38.5891ZM16.0015 4.44564C22.3437 4.44564 27.5015 9.6034 27.5015 15.9552C27.5417 24.4614 19.0911 32.0993 16.0015 34.6044C12.9137 32.0974 4.4612 24.4576 4.5015 15.9456C4.5015 9.60341 9.6592 4.44564 16.0015 4.44564Z" fill="white"/>
</svg>
