<svg width="34" height="28" viewBox="0 0 34 28" fill="none" xmlns="http://www.w3.org/2000/svg">
<path d="M33.665 3.97191C32.4402 4.50026 31.1073 4.8805 29.7344 5.0286C31.1598 4.18179 32.2272 2.84398 32.7364 1.26616C31.3988 2.06183 29.9336 2.61977 28.4056 2.91523C27.7669 2.23249 26.9945 1.68859 26.1365 1.31742C25.2785 0.946252 24.3532 0.755764 23.4183 0.757829C19.6359 0.757829 16.5939 3.82382 16.5939 7.58626C16.5939 8.1146 16.6579 8.64295 16.762 9.15128C11.0983 8.85508 6.04707 6.14933 2.68889 2.00664C2.07699 3.05178 1.75634 4.24179 1.76028 5.45288C1.76028 7.82241 2.96507 9.91177 4.80226 11.1406C3.71957 11.0979 2.66224 10.8003 1.71626 10.272V10.3561C1.71626 13.6742 4.06178 16.424 7.18781 17.0564C6.60086 17.2089 5.99706 17.2869 5.39064 17.2886C4.94635 17.2886 4.52608 17.2445 4.1018 17.1845C4.96636 19.8902 7.484 21.8555 10.4819 21.9196C8.13642 23.7568 5.19851 24.8375 2.00845 24.8375C1.43607 24.8375 0.907731 24.8174 0.359375 24.7534C3.38534 26.6947 6.97567 27.8154 10.8422 27.8154C23.3943 27.8154 30.2628 17.4166 30.2628 8.39078C30.2628 8.09459 30.2628 7.7984 30.2428 7.50221C31.5716 6.52957 32.7364 5.32479 33.665 3.97191Z" fill="#2091F9"/>
</svg>
