<svg width="34" height="28" viewBox="0 0 34 28" fill="none" xmlns="http://www.w3.org/2000/svg">
<path d="M33.665 3.95824C32.4402 4.48659 31.1073 4.86683 29.7344 5.01493C31.1598 4.16812 32.2272 2.83031 32.7364 1.25249C31.3988 2.04816 29.9336 2.6061 28.4056 2.90156C27.7669 2.21882 26.9945 1.67492 26.1365 1.30375C25.2785 0.93258 24.3532 0.742092 23.4183 0.744157C19.6359 0.744157 16.5939 3.81015 16.5939 7.57259C16.5939 8.10093 16.658 8.62927 16.762 9.1376C11.0983 8.84141 6.04707 6.13566 2.68889 1.99297C2.07699 3.03811 1.75634 4.22812 1.76028 5.4392C1.76028 7.80874 2.96507 9.8981 4.80226 11.1269C3.71957 11.0843 2.66224 10.7867 1.71626 10.2583V10.3424C1.71626 13.6605 4.06178 16.4103 7.18781 17.0427C6.60086 17.1952 5.99706 17.2732 5.39064 17.2749C4.94635 17.2749 4.52608 17.2309 4.1018 17.1708C4.96636 19.8766 7.484 21.8418 10.4819 21.9059C8.13642 23.7431 5.19851 24.8238 2.00845 24.8238C1.43607 24.8238 0.907731 24.8038 0.359375 24.7397C3.38534 26.681 6.97567 27.8017 10.8422 27.8017C23.3943 27.8017 30.2628 17.403 30.2628 8.37711C30.2628 8.08092 30.2628 7.78473 30.2428 7.48853C31.5716 6.5159 32.7364 5.31112 33.665 3.95824Z" fill="white"/>
</svg>
