<svg width="390" height="296" viewBox="0 0 390 296" fill="none" xmlns="http://www.w3.org/2000/svg">
<g clip-path="url(#clip0)">
<path d="M209.775 295.364C288.083 295.364 351.565 277.218 351.565 254.834C351.565 232.45 288.083 214.303 209.775 214.303C131.466 214.303 67.9844 232.45 67.9844 254.834C67.9844 277.218 131.466 295.364 209.775 295.364Z" fill="#F5F5F5"/>
<path d="M344.679 97.167C344.679 97.167 319.561 122.296 333.741 159.584C347.92 196.872 309.434 258.883 309.434 258.883C309.434 258.883 309.839 258.822 310.612 258.688C362.2 249.577 387.832 190.549 359.145 146.699C348.495 130.398 339.724 111.272 344.679 97.167Z" fill="#2091F9"/>
<path d="M344.679 97.167C344.679 97.167 330.5 127.97 344.679 153.099C358.858 178.228 347.109 248.75 309.434 258.883" stroke="#535461" stroke-width="2" stroke-miterlimit="10"/>
<path d="M389.41 198.805C389.41 198.805 360.748 194.237 358.135 219.937C355.522 245.638 303.039 249.196 303.039 249.196C303.039 249.196 303.379 249.431 304.023 249.853C347.371 278.321 388.81 267.986 382.567 230.183C380.23 216.132 380.416 202.015 389.41 198.805Z" fill="#2091F9"/>
<path opacity="0.2" d="M389.41 198.805C389.41 198.805 360.748 194.237 358.135 219.937C355.522 245.638 303.039 249.196 303.039 249.196C303.039 249.196 303.379 249.431 304.023 249.853C347.371 278.321 388.81 267.986 382.567 230.183C380.23 216.132 380.416 202.015 389.41 198.805Z" fill="#F5F5F5"/>
<path d="M389.41 198.805C389.41 198.805 367.161 203.693 368.988 223.933C370.815 244.174 335.935 268.428 303.023 249.188" stroke="#535461" stroke-width="2" stroke-miterlimit="10"/>
<path opacity="0.2" d="M61.835 0.396668C58.5697 0.283183 55.2235 0.396668 52.1608 1.53962C43.8276 4.6483 39.8777 14.8174 41.1619 23.6246C42.4462 32.4318 47.7289 40.0799 53.2101 47.0876C58.6913 54.0953 64.6303 61.0138 67.6362 69.3793C69.1352 73.558 69.836 78.2392 68.3128 82.4098C65.9631 88.842 58.8776 92.437 52.0757 93.1827C45.2739 93.9285 38.4436 92.4735 31.6174 91.9668C28.7533 91.7642 25.8081 91.7399 23.11 92.6802C20.1486 93.7056 17.6814 95.797 15.4128 97.9775C6.56102 106.529 -0.524445 118.202 0.622032 130.458C1.9184 144.352 13.4804 155.336 26.1443 161.225C30.3373 163.179 34.7733 164.759 38.4639 167.548C48.1866 174.9 50.3702 188.676 49.402 200.839C48.4338 213.003 45.1361 225.178 46.9713 237.236C49.1306 251.259 58.6872 263.925 71.578 269.842C83.063 275.111 97.4365 274.783 107.633 267.329C112.604 263.682 116.364 258.652 119.633 253.436C124.567 245.566 128.571 237.15 131.563 228.355C132.985 224.177 134.322 219.682 137.64 216.776C139.666 214.989 142.291 213.987 144.888 213.209C152.715 210.867 160.959 210.222 168.858 208.139C176.758 206.056 184.707 202.173 189.001 195.23C195.077 185.377 192.242 172.776 192.27 161.185C192.319 134.775 208.114 111.13 213.944 85.3928C215.848 76.9787 216.557 67.6689 212.303 60.1667C209.41 55.0478 204.537 51.4 199.412 48.5629C188.15 42.305 175.348 39.5206 162.753 36.8091C145.248 33.0479 123.992 32.5615 110.425 20.3943C97.4041 8.7216 79.5912 0.396668 61.835 0.396668Z" fill="#2091F9"/>
<g opacity="0.5">
<path opacity="0.5" d="M125.333 102.618C125.332 96.2525 124.336 89.9262 122.38 83.8688L117.518 68.7875C117.518 68.5362 117.518 68.289 117.518 68.0417C117.668 58.3753 110.137 53.5522 107.237 54.075C104.267 54.61 96.0271 50.4759 96.0271 50.4759V50.5894C95.4621 49.9387 94.9526 49.2419 94.5038 48.5061C95.9275 47.4688 97.1296 46.1571 98.0393 44.6483C98.9491 43.1395 99.5482 41.464 99.8015 39.7202C100.055 37.9764 99.957 36.1996 99.5141 34.4942C99.0711 32.7887 98.2919 31.1891 97.2222 29.7892C98.1128 29.1197 98.792 28.208 99.1789 27.1629C99.8514 25.2701 99.3369 23.1098 98.2431 21.4238C97.778 20.7199 97.2343 20.0713 96.6226 19.4905C95.696 18.5721 94.6841 17.7442 93.6004 17.0181C90.8983 15.1456 87.9288 13.5366 84.6879 12.9651C84.1271 12.8326 83.5432 12.8326 82.9824 12.9651C82.4956 13.1616 82.0323 13.4117 81.6009 13.7108C79.3809 14.9754 76.618 14.4282 74.0577 14.2945C71.4973 14.1607 68.386 14.8781 67.5758 17.2816C67.3246 18.0233 67.3408 18.8258 67.1707 19.5877C66.7656 21.4521 65.3274 22.8991 64.2174 24.4514C63.1074 26.0037 62.2769 28.0991 63.2006 29.7852C63.5165 30.3526 64.0108 30.8754 64.0108 31.5239C64.0108 31.99 63.7353 32.4075 63.6057 32.8533C63.3261 33.8666 63.8528 34.8798 64.663 35.6134C65.0122 35.99 65.4232 36.3039 65.8784 36.5416C67.1626 37.1982 68.6413 37.4008 69.9498 38.0088C70.6029 38.3157 71.2022 38.7263 71.7242 39.2247C72.3637 39.8944 72.8635 40.6848 73.1946 41.5497C73.5256 42.4146 73.6813 43.3369 73.6525 44.2626L73.924 44.291C73.924 44.372 73.924 44.449 73.924 44.5301C74.2075 44.5625 74.5073 44.5909 74.8031 44.6031C75.2285 45.2901 75.7153 45.9372 76.2574 46.5364C76.1656 46.8822 76.0616 47.2335 75.9455 47.5901C74.9935 48.2508 67.2071 53.4387 58.3513 52.1903C48.9 50.8569 43.4957 92.1978 43.4957 92.1978C43.1454 94.562 42.9748 96.9493 42.9853 99.3393C42.9448 105.419 44.2209 113.375 51.3307 112.204L55.1104 110.959V131.407C55.1104 131.407 55.6492 137.008 53.7614 140.729C51.8735 144.45 59.7044 143.128 59.7044 143.128C59.7044 143.128 60.0042 143.44 60.5552 143.971L60.381 144.462L60.6119 144.697C59.582 148.219 58.1932 151.627 56.4675 154.866L56.6904 154.979C56.5486 155.251 56.4675 155.385 56.4675 155.385C56.4675 155.385 59.3763 156.872 63.3788 158.789C66.5954 169.667 73.6363 194.861 71.3191 199.66L71.3839 199.798C71.8174 200.698 74.24 206.003 73.7498 210.863C73.3082 215.207 79.3201 234.95 81.5644 242.12L80.5031 242.334L84.2828 255.936L83.4725 264.739C83.4725 264.739 78.8826 277.008 89.683 274.609C100.483 272.209 97.5139 262.34 97.5139 262.34L97.7853 242.334C97.7853 242.334 96.7441 241.755 95.4599 241.199C94.5768 238.812 92.6525 233.17 92.6525 229.267C92.6525 224.201 89.1401 202.327 89.1401 202.327V202.282V202.197V202.173L89.1199 201.881V201.832C89.1199 201.561 89.0753 201.188 89.0429 200.734V200.71C88.6378 194.796 87.4224 174.705 88.3096 164.232C89.0898 163.7 89.9016 163.216 90.7403 162.781C93.3695 169.428 100.147 187.387 99.7136 194.922C99.1748 204.244 99.5799 196.924 99.7136 195.733C99.7541 195.364 99.7825 195.81 99.7947 196.811C99.7947 196.993 99.7947 197.196 99.7947 197.411C99.7947 197.625 99.7947 197.864 99.7947 198.112C99.7947 198.359 99.7947 198.626 99.7947 198.922C99.7947 199.063 99.7947 199.206 99.7947 199.352C99.7947 199.644 99.7947 199.949 99.7947 200.268C99.7947 200.427 99.7947 200.589 99.7947 200.754C99.7947 201.565 99.7947 202.465 99.7663 203.401C99.7663 203.587 99.7663 203.776 99.7663 203.968C99.7663 204.54 99.7663 205.123 99.7379 205.715C99.7379 206.526 99.7055 207.312 99.6893 208.127C99.6488 209.951 99.5961 211.795 99.5313 213.521C99.5313 213.713 99.5246 213.904 99.5111 214.093C99.4976 214.471 99.4827 214.841 99.4665 215.203C99.4503 215.565 99.4341 215.919 99.4179 216.265C99.4017 216.608 99.3841 216.942 99.3652 217.266C99.345 217.647 99.3207 218.012 99.3004 218.361L97.8339 218.15L97.5219 221.522C97.0306 226.876 97.7221 232.272 99.5475 237.329C100.05 238.715 100.439 239.862 100.524 240.271C100.795 241.605 100.524 251.215 100.524 251.215C100.524 251.215 102.144 263.751 109.708 261.347C113.111 260.265 114.764 256.974 115.554 253.675C116.43 249.85 116.103 245.848 114.618 242.217C113.544 239.517 112.446 235.732 113.22 232.806C114.569 227.739 114.569 220.537 114.569 220.537L113.735 220.42C113.943 220.024 114.131 219.618 114.298 219.204C114.298 219.204 114.026 200.799 116.457 198.399C117.794 197.078 117.672 193.905 117.267 191.311C116.689 187.557 116.553 183.748 116.862 179.962C117.028 178.013 117.267 176.314 117.547 175.711C118.26 174.3 118.973 160.082 115.817 153.241L116.465 153.038L116.364 152.535L116.465 152.503C116.941 153.774 117.482 155.02 118.086 156.236C118.245 156.361 118.428 156.452 118.624 156.503C127.371 154.967 127.723 146.8 127.237 142.342C127.606 142.52 127.808 142.634 127.808 142.634L128.619 130.88C129.449 129.003 129.757 126.608 129.737 124.018C129.773 114.761 125.333 102.618 125.333 102.618ZM115.691 136.027C115.092 130.908 114.261 126.089 114.261 126.089L110.21 111.685V106.44L116.635 130.434L115.691 136.027Z" fill="url(#paint0_linear)"/>
</g>
<path d="M97.4782 214.709L97.1785 218.004C96.7054 223.24 97.3758 228.515 99.1433 233.466C99.6253 234.824 100.002 235.943 100.083 236.344C100.342 237.649 100.083 247.032 100.083 247.032C100.083 247.032 101.647 259.284 108.943 256.937C112.224 255.883 113.804 252.661 114.582 249.439C115.425 245.702 115.109 241.797 113.675 238.245C112.638 235.606 111.576 231.898 112.326 229.048C113.63 224.096 113.63 217.059 113.63 217.059L97.4782 214.709Z" fill="#5A5773"/>
<path d="M89.6602 158.145C89.6602 158.145 99.8205 182.909 99.2979 192.028C98.7753 201.147 99.1682 193.982 99.2979 192.81C99.5288 190.723 99.2979 215.507 98.516 218.345C98.516 218.345 109.199 226.163 113.368 215.738C113.368 215.738 113.108 197.755 115.45 195.408C116.738 194.12 116.613 191.015 116.232 188.482C115.67 184.817 115.534 181.1 115.827 177.405C115.985 175.5 116.203 173.822 116.487 173.25C117.269 171.686 118.051 153.962 113.359 149.009L89.6602 158.145Z" fill="#605D82"/>
<path opacity="0.1" d="M99.8203 218.357C100.602 215.491 100.833 190.723 100.602 192.823C100.473 193.994 100.08 201.164 100.602 192.04C101.125 182.917 90.9645 158.157 90.9645 158.157L113.696 149.411C113.59 149.277 113.481 149.151 113.371 149.034L89.6641 158.157C89.6641 158.157 99.8244 182.921 99.3018 192.04C98.7792 201.16 99.1721 193.994 99.3018 192.823C99.5327 190.735 99.3018 215.52 98.5199 218.357C98.5199 218.357 102.786 221.478 106.979 221.145C103.248 220.866 99.8203 218.357 99.8203 218.357Z" fill="black"/>
<path d="M80.8008 238.427L84.4468 251.721L83.665 260.322C83.665 260.322 79.237 272.311 89.6566 269.964C100.076 267.617 97.212 257.975 97.212 257.975L97.4713 238.427C97.4713 238.427 93.3026 236.08 91.4796 236.344C89.6566 236.607 80.8008 238.427 80.8008 238.427Z" fill="#5A5773"/>
<path d="M62.8281 151.891C62.8281 151.891 74.8114 190.727 71.9473 196.722C71.9473 196.722 74.8114 202.457 74.2929 207.665C73.7743 212.873 82.6302 240.766 82.6302 240.766L95.6587 238.419C95.6587 238.419 92.5312 230.601 92.5312 225.648C92.5312 220.695 89.1444 199.303 89.1444 199.303C89.1444 199.303 86.2803 160.204 89.667 156.033L62.8281 151.891Z" fill="#605D82"/>
<g opacity="0.1">
<path opacity="0.1" d="M88.6542 159.211C86.4949 168.063 88.8811 200.637 88.8811 200.637C88.8811 200.637 92.2678 222.009 92.2678 226.982C92.2678 230.763 94.0868 236.21 94.9497 238.577L95.6546 238.452C95.6546 238.452 92.5271 230.634 92.5271 225.681C92.5271 220.728 89.1403 199.336 89.1403 199.336C89.1403 199.336 86.9608 169.566 88.6542 159.211Z" fill="black"/>
<path opacity="0.1" d="M71.9453 196.722L72.0101 196.856C72.0304 196.722 72.0507 196.58 72.0628 196.45C72.0283 196.543 71.9891 196.633 71.9453 196.722Z" fill="black"/>
<path opacity="0.1" d="M89.0756 157.314C89.1939 156.864 89.393 156.44 89.663 156.062L62.8281 151.891C62.8281 151.891 62.9861 152.398 63.2575 153.302L89.0756 157.314Z" fill="black"/>
</g>
<path d="M125.351 137.815C125.351 137.815 129.26 152.406 117.536 154.497C117.346 154.447 117.168 154.359 117.014 154.238C117.014 154.238 110.24 140.944 115.45 135.731L125.351 137.815Z" fill="#FAC3CA"/>
<path d="M77.4158 40.8621C77.4158 40.8621 78.1977 51.8053 69.6011 57.0215C61.0046 62.2378 87.8313 76.5693 87.8313 76.5693L101.901 54.152C101.901 54.152 95.9133 54.9261 92.2673 44.5098L77.4158 40.8621Z" fill="#FAC3CA"/>
<path opacity="0.1" d="M71.6826 57.7957C71.6826 57.7957 84.9704 85.4252 96.9538 59.3601L115.451 151.105C115.451 151.105 86.7894 159.969 86.5342 164.139C86.279 168.31 57.6211 153.455 57.6211 153.455C57.6211 153.455 63.872 141.985 62.3123 134.949C60.7526 127.913 71.6826 57.7957 71.6826 57.7957Z" fill="black"/>
<path d="M71.6826 57.2729C71.6826 57.2729 84.9704 84.9025 96.9538 58.8374L115.451 150.586C115.451 150.586 86.7894 159.45 86.5342 163.62C86.279 167.791 57.6211 152.933 57.6211 152.933C57.6211 152.933 63.872 141.463 62.3123 134.426C60.7526 127.39 71.6826 57.2729 71.6826 57.2729Z" fill="#E1E7EF"/>
<path d="M84.7106 245.727C84.7106 245.727 81.3238 238.168 89.1385 238.168C96.9532 238.168 95.6528 244.945 95.6528 244.945L84.7106 245.727Z" fill="#5A5773"/>
<path d="M102.426 226.175C102.426 226.175 99.2989 218.093 107.118 217.834C114.936 217.574 111.027 225.129 111.027 225.129L102.426 226.175Z" fill="#5A5773"/>
<path opacity="0.1" d="M95.7812 51.4001C95.7812 51.4001 103.726 55.4532 106.594 54.9182C109.462 54.3832 117.013 59.3481 116.495 69.2538L121.202 84.0311C123.085 89.9564 124.042 96.1373 124.038 102.355C124.038 102.355 130.812 121.12 127.166 129.462L126.384 140.932C126.384 140.932 120.392 137.543 114.137 138.585L115.713 129.218L108.664 102.626L96.9399 74.2147L95.7812 51.4001Z" fill="black"/>
<path d="M95.7812 50.8853C95.7812 50.8853 103.726 54.9383 106.594 54.4033C109.462 53.8683 117.013 58.8333 116.495 68.7389L121.202 83.5162C123.085 89.4415 124.042 95.6224 124.038 101.84C124.038 101.84 130.812 120.606 127.166 128.947L126.384 140.417C126.384 140.417 120.392 137.028 114.137 138.07L115.701 128.687L108.664 102.103L96.952 73.6917L95.7812 50.8853Z" fill="#67647E"/>
<path opacity="0.1" d="M108.939 82.5557V112.009L112.849 126.085C112.849 126.085 115.454 141.462 114.672 146.156C113.89 150.849 101.384 151.891 97.9972 147.98C94.6105 144.069 96.4335 110.692 96.4335 110.692L95.7812 61.8325L96.3038 60.2681L108.939 82.5557Z" fill="black"/>
<path d="M109.475 81.2546V110.708L113.384 124.784C113.384 124.784 115.989 140.161 115.207 144.855C114.425 149.548 101.919 150.59 98.5324 146.679C95.1456 142.767 96.9686 109.391 96.9686 109.391L96.3164 60.5193L109.475 81.2546Z" fill="#67647E"/>
<path opacity="0.1" d="M56.9648 105.755L65.3021 131.695L61.3928 142.772C61.3928 142.772 79.8903 162.319 91.6144 152.937C91.6144 152.937 92.9188 113.055 90.3099 103.672C87.701 94.2893 75.1991 62.7365 75.1991 62.7365L72.6104 54.4075L58.8041 62.2258L56.9648 105.755Z" fill="black"/>
<path d="M56.312 104.45V129.984C56.312 129.984 56.8346 135.46 55.0075 139.108C53.1805 142.755 60.7399 141.454 60.7399 141.454C60.7399 141.454 79.2375 161.002 90.9615 151.619C90.9615 151.619 92.266 111.737 89.6571 102.355C87.0481 92.9719 74.5462 61.419 74.5462 61.419L71.9414 53.0779L58.135 60.8962L56.312 104.45Z" fill="#67647E"/>
<path opacity="0.1" d="M76.5047 48.5427C76.5047 48.5427 68.5604 54.4075 59.4412 53.1024C50.3221 51.7973 45.1123 92.202 45.1123 92.202C45.1123 92.202 41.7255 113.055 52.6677 111.231L76.8976 103.149C76.8976 103.149 71.6879 97.6736 72.4697 90.6375L60.7417 95.3269L61.2683 72.9136L76.5047 48.5427Z" fill="black"/>
<path opacity="0.1" d="M45.6279 91.679C45.6279 91.679 42.2412 112.532 53.1833 110.708L77.4133 102.626C77.4133 102.626 72.2035 97.1546 72.9854 90.1145L61.2654 94.8079L45.6279 91.679Z" fill="black"/>
<path d="M72.4102 92.8627C72.4102 92.8627 80.5408 82.1667 86.5284 87.3019C92.516 92.4371 74.5573 101.848 74.5573 101.848L72.4102 92.8627Z" fill="#FAC3CA"/>
<path d="M76.5047 48.0198C76.5047 48.0198 68.5604 53.8845 59.4412 52.5794C50.3221 51.2744 45.1123 91.679 45.1123 91.679C45.1123 91.679 41.7255 112.532 52.6677 110.708L76.8976 102.626C76.8976 102.626 71.6879 97.1506 72.4697 90.1146L60.7417 94.808L61.2683 72.3907L74.5561 61.4475L76.5047 48.0198Z" fill="#67647E"/>
<path opacity="0.1" d="M92.5241 45.0205L77.6726 41.3728C77.6726 41.3728 78.4464 42.2483 77.543 45.6731C79.9331 48.417 82.8702 52.0606 86.7918 52.0606C89.5981 52.0659 92.3304 51.1599 94.5781 49.4789C93.7393 48.0688 93.0509 46.5745 92.5241 45.0205Z" fill="black"/>
<path d="M86.5363 51.542C93.7318 51.542 99.5648 45.7062 99.5648 38.5075C99.5648 31.3087 93.7318 25.4729 86.5363 25.4729C79.3409 25.4729 73.5078 31.3087 73.5078 38.5075C73.5078 45.7062 79.3409 51.542 86.5363 51.542Z" fill="#FAC3CA"/>
<path opacity="0.1" d="M91.4719 32.8494C94.4941 32.3346 97.816 30.9931 98.8288 28.0992C99.477 26.247 98.9828 24.1394 97.9254 22.4898C96.8681 20.8402 95.3124 19.5716 93.7081 18.4368C91.1033 16.6048 88.231 15.0322 85.0954 14.481C84.5548 14.3517 83.9913 14.3517 83.4506 14.481C82.9805 14.6736 82.5334 14.9183 82.1178 15.2106C79.9747 16.4467 77.3091 15.9117 74.8257 15.782C72.3424 15.6523 69.3648 16.3535 68.5829 18.7002C68.3398 19.4257 68.356 20.208 68.1778 20.9537C67.7727 22.7776 66.3993 24.1961 65.342 25.716C64.2846 27.2359 63.4703 29.2908 64.3616 30.9282C64.6654 31.4835 65.1718 31.9942 65.1718 32.6264C65.0936 33.0758 64.9575 33.5132 64.7667 33.9275C64.3981 35.2731 65.4716 36.6308 66.7113 37.2712C67.9509 37.9116 69.3769 38.1102 70.6409 38.706C71.8239 39.29 72.8144 40.2018 73.4945 41.3327C74.1746 42.4636 74.5157 43.7662 74.4773 45.0855C75.6278 45.2192 76.9688 45.2881 77.7466 44.4289C78.095 44.0438 78.2651 43.5291 78.5811 43.1198C78.9863 42.5848 79.6182 42.2686 80.1368 41.839C82.8632 39.5977 80.9268 36.5011 82.4702 34.0855C83.2805 32.8413 84.5687 33.2222 85.8732 33.2425C87.7476 33.2864 89.622 33.1548 91.4719 32.8494Z" fill="black"/>
<path d="M91.2141 32.5898C94.2363 32.0751 97.5582 30.7336 98.571 27.8397C99.2192 25.9875 98.725 23.8799 97.6676 22.2303C96.6103 20.5807 95.0546 19.3121 93.4504 18.1773C90.8455 16.3453 87.9732 14.7727 84.8376 14.2215C84.297 14.0922 83.7335 14.0922 83.1928 14.2215C82.7227 14.414 82.2756 14.6587 81.86 14.951C79.7169 16.1872 77.0513 15.6522 74.5679 15.5225C72.0845 15.3928 69.107 16.094 68.3251 18.4407C68.082 19.1662 68.0982 19.9484 67.92 20.6942C67.5149 22.5181 66.1415 23.9366 65.0842 25.4565C64.0268 26.9764 63.2125 29.0313 64.1038 30.6687C64.4076 31.224 64.914 31.7347 64.914 32.3669C64.8358 32.8163 64.6997 33.2537 64.5089 33.668C64.1402 35.0136 65.2138 36.3713 66.4534 37.0117C67.6931 37.6521 69.1191 37.8507 70.3831 38.4465C71.5709 39.0299 72.5656 39.9434 73.2482 41.0777C73.9307 42.2119 74.2721 43.5189 74.2317 44.8422C75.3822 44.9759 76.7231 45.0448 77.501 44.1856C77.8494 43.8005 78.0195 43.2858 78.3355 42.8764C78.7406 42.3414 79.3726 42.0253 79.8911 41.5957C82.6176 39.3544 80.6811 36.2578 82.2246 33.8422C83.0348 32.5979 84.3231 32.9789 85.6276 32.9992C87.4984 33.037 89.3687 32.8999 91.2141 32.5898Z" fill="#4A4347"/>
<path opacity="0.1" d="M106.984 76.4316C106.984 76.4316 109.849 91.2901 108.548 97.0251C107.754 100.361 107.871 103.85 108.888 107.125" fill="black"/>
<path opacity="0.1" d="M60.684 82.6853C60.684 82.6853 59.4362 92.5909 61.5144 94.6742L60.684 82.6853Z" fill="black"/>
<path d="M133.432 204.759C133.593 204.759 133.748 204.695 133.862 204.581C133.976 204.467 134.04 204.312 134.04 204.151C134.04 203.989 133.976 203.835 133.862 203.721C133.748 203.607 133.593 203.543 133.432 203.543C133.271 203.543 133.116 203.607 133.002 203.721C132.888 203.835 132.824 203.989 132.824 204.151C132.824 204.312 132.888 204.467 133.002 204.581C133.116 204.695 133.271 204.759 133.432 204.759Z" fill="black"/>
<g opacity="0.5">
<path opacity="0.5" d="M320.542 133.932V133.596L210.01 48.5629C209.94 48.5113 209.856 48.4834 209.769 48.4834C209.682 48.4834 209.598 48.5113 209.528 48.5629L98.9922 133.596V265.4H99.2029V265.611H320.757V133.806L320.542 133.932Z" fill="url(#paint1_linear)"/>
</g>
<path d="M316.725 261.724H102.824V134.459L209.775 52.1824L316.725 134.459V261.724Z" fill="white"/>
<path d="M309.026 254.181H110.52V136.076L209.773 59.7209L309.026 136.076V254.181Z" fill="#E0E0E0"/>
<path d="M243.448 57.9562L122.359 89.7153L162.733 243.793L283.822 212.034L243.448 57.9562Z" fill="#2091F9"/>
<path d="M272.974 81.3643H147.793V240.648H272.974V81.3643Z" fill="#F5F5F5"/>
<path opacity="0.05" d="M103.836 134.662L210.786 198.294L103.836 261.927V134.662Z" fill="black"/>
<path d="M103.027 134.662L209.978 198.294L103.027 261.927V134.662Z" fill="white"/>
<path opacity="0.05" d="M316.118 134.662L209.168 198.294L316.118 261.927V134.662Z" fill="black"/>
<path d="M316.927 134.662L209.977 198.294L316.927 261.927V134.662Z" fill="white"/>
<path opacity="0.05" d="M103.027 259.9L209.978 176.408L316.928 259.9H103.027Z" fill="black"/>
<path d="M103.027 261.927L209.978 178.434L316.928 261.927H103.027Z" fill="white"/>
<path d="M124.763 271.593C124.763 271.593 119.391 253.355 125.772 239.923C128.483 234.308 129.3 227.965 128.101 221.846C127.51 218.946 126.654 216.107 125.545 213.363" stroke="#535461" stroke-width="2" stroke-miterlimit="10"/>
<path d="M129.509 204.876C129.509 207.114 125.457 213.594 125.457 213.594C125.457 213.594 121.406 207.109 121.406 204.876C121.406 203.801 121.833 202.77 122.593 202.01C123.353 201.25 124.383 200.823 125.457 200.823C126.532 200.823 127.562 201.25 128.322 202.01C129.082 202.77 129.509 203.801 129.509 204.876Z" fill="#6C63FF"/>
<path d="M136.213 217.262C134.997 219.139 128.078 222.381 128.078 222.381C128.078 222.381 128.204 214.737 129.419 212.861C130.025 212.012 130.935 211.43 131.959 211.235C132.983 211.04 134.043 211.247 134.918 211.814C135.793 212.381 136.416 213.264 136.657 214.279C136.898 215.293 136.739 216.362 136.213 217.262Z" fill="#6C63FF"/>
<path d="M135.906 238.423C133.909 239.428 126.301 238.735 126.301 238.735C126.301 238.735 130.267 232.202 132.26 231.197C132.737 230.93 133.263 230.762 133.807 230.704C134.35 230.645 134.9 230.698 135.423 230.858C135.945 231.018 136.43 231.282 136.848 231.634C137.266 231.987 137.609 232.42 137.855 232.908C138.101 233.396 138.246 233.929 138.281 234.475C138.316 235.021 138.24 235.568 138.058 236.084C137.876 236.599 137.591 237.073 137.221 237.476C136.852 237.878 136.404 238.202 135.906 238.427V238.423Z" fill="#6C63FF"/>
<path d="M132.083 254.388C130.284 255.718 122.668 256.317 122.668 256.317C122.668 256.317 125.471 249.208 127.27 247.879C128.136 247.301 129.19 247.079 130.215 247.258C131.24 247.437 132.157 248.003 132.775 248.84C133.394 249.677 133.667 250.72 133.538 251.753C133.409 252.786 132.888 253.729 132.083 254.388Z" fill="#6C63FF"/>
<path d="M119.568 222.811C121.188 224.367 128.638 225.984 128.638 225.984C128.638 225.984 126.811 218.563 125.207 217.007C124.426 216.317 123.41 215.954 122.37 215.994C121.329 216.033 120.344 216.472 119.618 217.22C118.892 217.967 118.482 218.965 118.473 220.007C118.463 221.049 118.855 222.055 119.568 222.815V222.811Z" fill="#6C63FF"/>
<path d="M115.331 241.54C117.328 242.545 124.936 241.852 124.936 241.852C124.936 241.852 120.97 235.319 118.977 234.313C118.025 233.883 116.944 233.837 115.959 234.185C114.975 234.533 114.162 235.248 113.692 236.181C113.222 237.114 113.129 238.193 113.435 239.192C113.74 240.191 114.42 241.034 115.331 241.544V241.54Z" fill="#6C63FF"/>
<path d="M113.709 260.305C115.508 261.635 123.124 262.235 123.124 262.235C123.124 262.235 120.321 255.126 118.522 253.796C118.097 253.449 117.606 253.191 117.079 253.039C116.552 252.887 116 252.844 115.455 252.912C114.911 252.98 114.386 253.158 113.913 253.435C113.439 253.712 113.027 254.082 112.7 254.524C112.374 254.965 112.141 255.468 112.015 256.002C111.889 256.536 111.872 257.09 111.967 257.631C112.061 258.171 112.264 258.687 112.563 259.147C112.863 259.607 113.253 260.001 113.709 260.305Z" fill="#6C63FF"/>
<path opacity="0.5" d="M205.32 88.6597H155.086V92.7127H205.32V88.6597Z" fill="#6C63FF"/>
<path opacity="0.5" d="M263.657 104.872H155.086V108.925H263.657V104.872Z" fill="#6C63FF"/>
<path opacity="0.5" d="M263.657 115.41H155.086V119.463H263.657V115.41Z" fill="#6C63FF"/>
<path opacity="0.4" d="M263.657 125.948H155.086V130.001H263.657V125.948Z" fill="#6C63FF"/>
<path opacity="0.4" d="M263.657 136.485H155.086V140.538H263.657V136.485Z" fill="#6C63FF"/>
<path opacity="0.3" d="M217.069 147.023H155.086V151.076H217.069V147.023Z" fill="#6C63FF"/>
<path opacity="0.3" d="M239.755 157.561H155.086V161.614H239.755V157.561Z" fill="#6C63FF"/>
</g>
<defs>
<linearGradient id="paint0_linear" x1="42.9893" y1="143.915" x2="129.692" y2="143.915" gradientUnits="userSpaceOnUse">
<stop stop-color="#808080" stop-opacity="0.25"/>
<stop offset="0.54" stop-color="#808080" stop-opacity="0.12"/>
<stop offset="1" stop-color="#808080" stop-opacity="0.1"/>
</linearGradient>
<linearGradient id="paint1_linear" x1="141325" y1="160842" x2="141325" y2="44516.2" gradientUnits="userSpaceOnUse">
<stop stop-color="#808080" stop-opacity="0.25"/>
<stop offset="0.54" stop-color="#808080" stop-opacity="0.12"/>
<stop offset="1" stop-color="#808080" stop-opacity="0.1"/>
</linearGradient>
<clipPath id="clip0">
<rect width="389" height="295" fill="white" transform="translate(0.5 0.364258)"/>
</clipPath>
</defs>
</svg>
